<?xml version="1.0" encoding="utf-8"?>
<!-- Generator: Adobe Illustrator 25.4.1, SVG Export Plug-In . SVG Version: 6.00 Build 0)  -->
<svg version="1.1" id="Layer_1" xmlns="http://www.w3.org/2000/svg" xmlns:xlink="http://www.w3.org/1999/xlink" x="0px" y="0px"
	 viewBox="0 0 1533.3 372.4" style="enable-background:new 0 0 1533.3 372.4;" xml:space="preserve">
<style type="text/css">
	.st0{fill:#012980;}
	.st1{fill:#3071FE;}
	.st2{fill:#FDFEFE;}
</style>
<g>
	<path class="st0" d="M1110.1,43.9c14,1.6,31.4,3.5,48.8,5.4c31.1,3.5,62.2,7,93.3,10.6c4.1,0.5,8.3,0.8,12.3,1.8
		c9.6,2.4,15.6,10.3,15.4,20c-0.2,15-2.9,29.8-4.5,44.7c-3.3,30.8-7,61.5-10.5,92.2c-3.4,30.2-6.7,60.5-10.3,90.7
		c-1.6,13.2-11.5,20.7-25.5,19.2c-18.7-1.9-37.4-4.2-56.1-6.3c-30.9-3.5-61.8-7.2-92.8-10.5c-16.8-1.8-24.4-10.7-22.5-27.7
		c6.3-55.5,12.6-111.1,18.9-166.6c2-17.7,4-35.4,6-53.1C1084.3,50.2,1092,43.5,1110.1,43.9z M1215.9,267
		c-1.2-10.5-2.3-20.4-3.4-30.3c-4.6-39.3-9.2-78.7-13.6-118c-0.4-3.9-1.8-5.3-5.7-5.7c-11.6-1.1-23.2-2.4-34.7-3.9
		c-3.3-0.4-4.6,0.5-5.7,3.6c-7,20.6-14.3,41.1-21.4,61.6c-9.3,26.5-18.5,53-27.7,79.5c-0.5,1.6-2.6,3.7,1.4,4.1
		c9.4,0.9,18.9,1.9,28.3,3.2c2.7,0.4,3.5-0.8,4.3-2.9c1.6-4.2,3.4-8.3,5-12.5c0.7-2,1.6-2.9,4-2.6c9.4,1.3,18.8,2.4,28.3,3.3
		c3.2,0.3,4.1,1.5,4.4,4.5c0.3,4.1,1.2,8.2,1.9,12.3c0.3,2.1,0.8,3.5,3.6,3.7c9.3,0.8,18.6,1.8,27.8,3.1
		C1215.8,270.5,1216.6,269.5,1215.9,267z"/>
	<path class="st1" d="M1072.8,312.5c-22.2,2.7-44.4,5.5-66.7,8.2c-23.4,2.9-46.9,5.6-70.3,8.6c-13.8,1.8-24.3-5.1-26.2-18.8
		c-3.2-23.1-5.8-46.2-8.7-69.3c-3.6-28.9-7.1-57.8-10.7-86.7c-2.8-22.4-5.7-44.9-8.2-67.4c-1.6-14.6,6.1-23.6,20.9-25.4
		c50.4-6.2,100.7-12.4,151.1-18.6c8-1,14.8,1.5,20.1,7.6c1.1,1.2,2.3,2.5,1.5,4.4c-3.8,9.5-3.5,19.6-4.7,29.4
		c-3.8,31.4-7.3,62.8-10.8,94.2c-3.5,30.7-6.9,61.5-10.4,92.2c-0.4,4-0.8,8-1.4,11.9c-2.4,16.8,4.3,26.1,21,28.7
		c1.1,0.2,2.3,0.3,3.4,0.5C1072.8,312.2,1072.8,312.3,1072.8,312.5z M1016.5,260.9c9.4-1.1,18.3-2.2,27.3-3.2
		c3.1-0.3,3.4-1.4,2.4-4.2c-17.3-47.1-34.6-94.2-51.8-141.3c-0.9-2.4-1.9-3.4-4.6-3c-12.4,1.7-24.7,3.2-37.1,4.6
		c-2.4,0.3-3.5,1-3.7,3.5c-0.9,10.3-2,20.5-3,30.8c-2.5,24.6-5,49.3-7.5,73.9c-1.5,14.9-3,29.8-4.5,44.7c-0.2,2.1-0.9,4.5,2.9,4
		c9.2-1.2,18.5-2.4,27.7-3.4c2.5-0.3,3.2-1.5,3.5-3.9c0.4-4.5,1.4-8.9,1.9-13.3c0.3-2.3,1.2-3.1,3.4-3.3c5.8-0.6,11.6-1.4,17.3-2
		c4.8-0.5,10.6-3.3,14-0.9c3.5,2.5,4.5,8.6,6.3,13.2C1012,260,1013.3,262.1,1016.5,260.9z"/>
	<path class="st0" d="M845.1,184c14.7,6.8,21,17.7,20.4,33c-0.4,12.3,0.1,24.6-0.1,37c-0.3,23.1-12.5,36.1-35.7,36.6
		c-27.6,0.6-55.3,0.3-82.9,0.3c-11.8,0-11.8,0-11.8-11.9c0-64.9,0-129.9-0.1-194.8c0-4.4,1-5.5,5.4-5.5c27.5,0.2,55,0.1,82.5,0.1
		c7.9,0,15.6,0.8,23,3.8c11.3,4.5,17.7,13,19,24.8c1.7,16.1,1.1,32.3,0.4,48.4C864.6,168.9,857.1,177.7,845.1,184z M782,139.8
		c0,8.1,0.1,16.3-0.1,24.4c-0.1,2.8,0.7,3.8,3.6,3.7c6.5-0.2,13,0.1,19.5-0.1c8.7-0.3,15.4-6.8,15.7-15.5c0.3-8.3,0.3-16.6,0-24.9
		c-0.3-8.7-7.1-15.3-15.7-15.6c-6.5-0.2-13,0.1-19.5-0.1c-2.9-0.1-3.7,0.9-3.6,3.7C782.2,123.5,782,131.7,782,139.8z M782,232.8
		c0,8.3,0.1,16.6,0,25c0,2.6,0.7,3.5,3.4,3.5c6.5-0.2,13,0.1,19.5-0.1c9.3-0.3,15.8-7,16-16.3c0.2-7.8,0.2-15.6,0-23.5
		c-0.2-9.4-7-16.2-16.6-16.4c-6.2-0.1-12.3,0.2-18.5-0.1c-3.3-0.1-3.9,1.1-3.8,4C782.2,216.8,782,224.8,782,232.8z"/>
	<path class="st0" d="M515.1,188.4c0-33.5,0.1-66.9-0.1-100.4c0-4.2,0.7-5.7,5.4-5.6c27.1,0.2,54.3,0.1,81.4,0.1c4.8,0,9.6,0,14.4,1
		c19.9,3.8,29.4,14.9,29.5,35.2c0.1,37.5,0.1,74.9,0,112.4c0,11.3,0.9,22.7-0.6,33.9c-2.3,16.6-11.8,26.1-28.5,28.7
		c-4.1,0.6-8.3,1-12.4,1c-28.1,0.1-56.3-0.1-84.4,0.2c-4.2,0-4.8-1.4-4.8-5.1C515.2,256,515.1,222.2,515.1,188.4z M562.9,188.3
		c0,23.1,0.1,46.3-0.1,69.4c0,3.6,1,4.5,4.4,4.3c7.1-0.3,14.3,0,21.5-0.1c7-0.1,9.3-2.3,9.3-9.3c0-42.6,0-85.2,0-127.8
		c0-7.1-2.3-9.4-9.7-9.6c-6.5-0.1-13,0.3-19.5-0.1c-4.7-0.3-6.2,0.8-6.1,5.8C563.1,143.3,562.9,165.8,562.9,188.3z"/>
	<path class="st0" d="M459.7,214.2c12.3,26.7,24.5,53.2,36.7,79.6c-1.3,1.6-2.7,0.9-3.9,0.9c-14,0.1-28-0.1-42,0.1
		c-3.5,0-5.2-0.9-6.6-4.3c-9.8-23.8-19.8-47.5-29.8-71.3c-0.7-1.7-0.9-3.7-3.7-4c-5.7-0.4-6.2-0.2-6.2,5.6c0,23.2-0.1,46.3,0.1,69.5
		c0,3.4-0.7,4.5-4.3,4.4c-13-0.2-26-0.2-39,0c-3.3,0-4.1-0.8-4.1-4.1c0.1-68,0.1-135.9,0-203.9c0-3.4,0.6-4.5,4.3-4.5
		c27.7,0.2,55.3,0.1,83,0.1c6,0,12,0.4,17.8,2.1c14.8,4.2,23.7,14.5,23.9,30c0.4,22.8,0.4,45.6,0,68.4c-0.2,15.1-8.4,25.3-22.7,30
		C462.1,213.3,461,213.7,459.7,214.2z M404.2,149.5c0,9.5,0,19,0,28.5c0,2.2,0.1,3.8,3.1,3.7c7.8-0.2,15.7,0.1,23.5-0.2
		c5.6-0.2,7.6-2.1,7.7-7.7c0.2-16,0.2-32,0-48c-0.1-6.1-2.6-8.1-8.9-8.2c-7.2-0.1-14.3,0.1-21.5-0.1c-3.1-0.1-4,0.9-3.9,3.9
		C404.3,130.8,404.2,140.1,404.2,149.5z"/>
	<path class="st0" d="M340.1,294.8c-15.3,0-30.4,0-45.5,0c-2.5,0-2.4-1.6-2.7-3.3c-1.9-10.3-4.1-20.5-5.8-30.9
		c-0.6-3.4-1.9-4.3-5.2-4.2c-13.2,0.2-26.3,0.2-39.5,0c-3.7-0.1-4.9,1.2-5.4,4.5c-1.7,10.2-3.9,20.2-5.7,30.4
		c-0.5,2.6-1.3,3.5-4,3.5c-13.3-0.2-26.7-0.1-40,0c-2.9,0-3.7-0.5-3-3.6c15.5-68.2,30.9-136.5,46.3-204.7c0.7-3,1.5-4.1,4.8-4.1
		c17.7,0.2,35.3,0.1,53,0c2.7,0,4.1,0.5,4.8,3.5c15.8,68.5,31.7,136.9,47.7,205.4C340,292.3,340,293.4,340.1,294.8z M261.4,134.8
		c-0.3,0-0.6-0.1-1-0.1c-5.4,27.8-10.8,55.6-16.2,83.5c-0.6,3.1,0.5,3.6,3.2,3.6c9-0.1,18-0.2,26.9,0c3.4,0.1,3.7-0.8,3.1-4
		c-2.7-13.2-5.1-26.4-7.6-39.6C267,163.7,264.2,149.3,261.4,134.8z"/>
	<path class="st0" d="M44.2,188.6c0-22.5,0-45,0-67.4c0-4.3,0.2-8.7,1.2-12.9c3.5-15.7,14.4-23.7,29.4-24.8
		c22.7-1.8,45.6-2.6,68.3,0.5c18.1,2.5,27.6,14.4,28,32.7c0.3,12.3,0,24.6,0.2,37c0,2.6-0.7,3.4-3.3,3.4c-13.8-0.1-27.7-0.1-41.5,0
		c-2.6,0-3.4-0.8-3.3-3.4c0.1-9.7,0.1-19.3,0-29c0-7-2.2-9.2-9.3-9.4c-4.5-0.1-9-0.2-13.5,0.1c-6,0.3-8.3,2.8-8.3,8.9
		c0,43.1,0,86.3,0,129.4c0,6.2,1.9,8.2,8,8.3c5,0.1,10,0.1,15,0c6.2-0.2,8-2,8.1-8.2c0.1-9.5,0.1-19,0-28.5c-0.1-3,0.6-4.1,3.8-4
		c13.5,0.2,27,0.2,40.5,0c3.1,0,3.9,0.9,3.9,4c-0.2,11.8,0,23.6-0.2,35.5c-0.4,18.7-10.9,30.3-29.4,33.2c-8.1,1.3-16.3,1-24.4,0.9
		c-13.8-0.2-27.7,1.2-41.4-0.7c-21.6-3-31.4-14.5-31.5-36.4C44.1,234.5,44.2,211.6,44.2,188.6z"/>
	<path class="st0" d="M1344.6,259.7c2.2,0,3.8,0,5.4,0c21.2,0,42.3,0.1,63.5-0.1c3.3,0,4.7,0.5,4.5,4.2c-0.3,9-0.2,18,0,27
		c0.1,2.9-0.5,4-3.8,4c-38.5-0.1-77-0.1-115.5,0c-3.2,0-3.9-1-3.8-4c0.2-9.3,0.2-18.7,0-28c0-2.7,1-4.8,2.1-7
		c23.4-44,46.8-88.1,70.2-132.1c0.9-1.7,1.8-3.5,2.9-5.9c-2.2-0.1-3.9-0.3-5.7-0.3c-20.3,0-40.7-0.1-61,0.1c-3.8,0-4.8-1-4.7-4.8
		c0.3-8.8,0.2-17.7,0-26.5c-0.1-2.9,0.6-4.1,3.8-4.1c37.8,0.1,75.6,0.1,113.5,0c2.7,0,3.8,0.6,3.7,3.5c-0.2,9.7-0.1,19.3,0,29
		c0,2.5-1,4.5-2.1,6.5c-23.6,44.3-47.1,88.7-70.7,133C1346.4,256,1345.7,257.6,1344.6,259.7z"/>
	<path class="st0" d="M1489,189.1c0,33.6-0.1,67.3,0.1,100.9c0,3.9-1,5-4.9,4.9c-12.7-0.3-25.3-0.2-38,0c-3.2,0-4.6-0.4-4.6-4.2
		c0.1-67.9,0.1-135.9,0-203.8c0-3.4,0.8-4.5,4.3-4.4c12.8,0.2,25.7,0.3,38.5,0c3.9-0.1,4.6,1.2,4.6,4.8
		C1488.9,121.1,1489,155.1,1489,189.1z"/>
	<path class="st2" d="M1215.9,267c0.7,2.5-0.1,3.5-3.5,3c-9.2-1.3-18.5-2.3-27.8-3.1c-2.7-0.2-3.3-1.6-3.6-3.7
		c-0.6-4.1-1.5-8.2-1.9-12.3c-0.3-3-1.2-4.2-4.4-4.5c-9.4-0.8-18.9-2-28.3-3.3c-2.4-0.3-3.2,0.5-4,2.6c-1.5,4.2-3.3,8.3-5,12.5
		c-0.8,2-1.7,3.2-4.3,2.9c-9.4-1.2-18.8-2.3-28.3-3.2c-4-0.4-1.9-2.5-1.4-4.1c9.2-26.5,18.5-53,27.7-79.5
		c7.2-20.5,14.4-41.1,21.4-61.6c1.1-3.1,2.4-4,5.7-3.6c11.6,1.5,23.1,2.8,34.7,3.9c3.8,0.4,5.2,1.7,5.7,5.7
		c4.4,39.4,9.1,78.7,13.6,118C1213.6,246.6,1214.7,256.5,1215.9,267z M1167.5,200.5c8.3,7.3,14.6,8.7,21.2,5.2
		c4.5-2.4,7.5-7.3,6.8-11.9c-1.3-8.7-7.5-11.9-15.5-12.6c3.5-8.7,2.8-14.2-2.1-18.4c-4.2-3.6-10.6-4.1-15.4-1.2
		c-5.5,3.4-7.2,8.7-5.2,17.2c-7.3-1.4-13.7-0.2-17.5,6.9c-2.5,4.6-1.5,10.5,2.4,14.2c6.9,6.3,14.2,5.5,21.7,0.1
		c-0.3,5.7-3.9,9.1-6.1,13.5c4.6,0.5,8.6,0.9,13.2,1.4C1168.6,210,1166.9,205.7,1167.5,200.5z"/>
	<path class="st2" d="M1016.5,260.9c-3.1,1.2-4.5-0.8-5.6-3.9c-1.8-4.6-2.8-10.7-6.3-13.2c-3.3-2.4-9.2,0.4-14,0.9
		c-5.8,0.6-11.6,1.5-17.3,2c-2.2,0.2-3.2,1-3.4,3.3c-0.5,4.5-1.4,8.9-1.9,13.3c-0.2,2.4-1,3.6-3.5,3.9c-9.2,1.1-18.5,2.2-27.7,3.4
		c-3.7,0.5-3.1-1.9-2.9-4c1.5-14.9,3-29.8,4.5-44.7c2.5-24.6,5-49.3,7.5-73.9c1-10.3,2.1-20.5,3-30.8c0.2-2.6,1.3-3.3,3.7-3.5
		c12.4-1.4,24.8-2.9,37.1-4.6c2.8-0.4,3.8,0.6,4.6,3c17.2,47.1,34.4,94.2,51.8,141.3c1,2.8,0.7,3.9-2.4,4.2
		C1034.8,258.6,1025.9,259.7,1016.5,260.9z M984.6,200.5c5.9,3.6,11.3,5.2,16.9,1.4c5-3.4,6.9-8.4,6.2-14.3c-0.7-6-4.1-10.4-8.8-14
		c-6.8-5.2-14.5-9.2-20.5-15.7c-3.9,6.3-8.9,11-13.6,15.9c-3.4,3.5-6.6,7-8.1,11.8c-2.3,7.2-0.4,14.4,5.1,18.4
		c5.5,4.1,10.7,3.6,17.7-1.7c0.4-0.3,0.8-0.4,1.4-0.7c1.1,5-1.5,9-3.1,13.7c4.5-0.7,8.8,0,13-1.8
		C987.7,209.7,985.1,206.1,984.6,200.5z"/>
	<path class="st0" d="M1167.5,200.5c-0.5,5.2,1.2,9.6,3.6,14.3c-4.6-0.5-8.7-0.9-13.2-1.4c2.2-4.4,5.8-7.9,6.1-13.5
		c-7.5,5.4-14.8,6.3-21.7-0.1c-4-3.7-4.9-9.6-2.4-14.2c3.8-7.1,10.2-8.3,17.5-6.9c-2-8.5-0.3-13.8,5.2-17.2
		c4.7-2.9,11.1-2.4,15.4,1.2c4.9,4.2,5.6,9.7,2.1,18.4c8,0.7,14.1,4,15.5,12.6c0.7,4.6-2.3,9.4-6.8,11.9
		C1182.1,209.2,1175.8,207.7,1167.5,200.5z"/>
	<path class="st0" d="M984.6,200.5c0.6,5.6,3.1,9.2,6.2,13c-4.3,1.8-8.5,1.1-13,1.8c1.6-4.7,4.2-8.7,3.1-13.7
		c-0.6,0.3-1.1,0.4-1.4,0.7c-7,5.3-12.1,5.8-17.7,1.7c-5.5-4-7.4-11.2-5.1-18.4c1.5-4.8,4.7-8.3,8.1-11.8c4.7-4.9,9.7-9.6,13.6-15.9
		c6,6.5,13.7,10.5,20.5,15.7c4.6,3.5,8.1,8,8.8,14c0.7,5.9-1.2,10.9-6.2,14.3C995.9,205.7,990.4,204.1,984.6,200.5z"/>
</g>
</svg>
